<svg xmlns="http://www.w3.org/2000/svg" width="1000" height="510" viewBox="0 0 1000 510" role="img" aria-labelledby="title desc"><title id="title">Median CLI time</title><desc id="desc">utoo-lint: 9.52 ms; Oxlint: 35.78 ms; Biome: 47.38 ms; ESLint: 742.05 ms. Linear scale · milliseconds · lower is better.</desc><style>text{font-family:-apple-system,BlinkMacSystemFont,'Segoe UI','Noto Sans CJK SC',sans-serif}.title{font-size:24px;font-weight:600;fill:#f1f5fc}.subtitle,.axis{font-size:17px;fill:#a5b3c8}.label,.value{font-size:21px;font-weight:500}.value{font-variant-numeric:tabular-nums}</style><rect width="1000" height="510" fill="#151c26"/><text x="30" y="43" class="title">Median CLI time</text><text x="30" y="76" class="subtitle">Linear scale · milliseconds · lower is better</text><path d="M166 110V424" stroke="#2a3646"/><text x="166" y="463" text-anchor="middle" class="axis">0</text><path d="M334.5 110V424" stroke="#2a3646"/><text x="334.5" y="463" text-anchor="middle" class="axis">200</text><path d="M503 110V424" stroke="#2a3646"/><text x="503" y="463" text-anchor="middle" class="axis">400</text><path d="M671.5 110V424" stroke="#2a3646"/><text x="671.5" y="463" text-anchor="middle" class="axis">600</text><path d="M840 110V424" stroke="#2a3646"/><text x="840" y="463" text-anchor="middle" class="axis">800</text><text x="30" y="163" class="label" fill="#8bd0ff">utoo-lint</text><rect x="166" y="135" width="8.016" height="40" rx="3" fill="#67bfff"/><text x="958" y="163" text-anchor="end" class="value" fill="#8bd0ff">9.52 ms</text><text x="30" y="241" class="label" fill="#d9e3f1">Oxlint</text><rect x="166" y="213" width="30.144" height="40" rx="3" fill="#637997"/><text x="958" y="241" text-anchor="end" class="value" fill="#f1f5fc">35.78 ms</text><text x="30" y="319" class="label" fill="#d9e3f1">Biome</text><rect x="166" y="291" width="39.920" height="40" rx="3" fill="#637997"/><text x="958" y="319" text-anchor="end" class="value" fill="#f1f5fc">47.38 ms</text><text x="30" y="397" class="label" fill="#d9e3f1">ESLint</text><rect x="166" y="369" width="625.180" height="40" rx="3" fill="#637997"/><text x="958" y="397" text-anchor="end" class="value" fill="#f1f5fc">742.05 ms</text><text x="840" y="490" text-anchor="end" class="axis">ms</text></svg>
